<svg width="1600" height="720" viewBox="0 0 1600 720" fill="none" xmlns="http://www.w3.org/2000/svg">
  <defs>
    <linearGradient id="bg" x1="0" y1="0" x2="1600" y2="720" gradientUnits="userSpaceOnUse">
      <stop stop-color="#F7FBFF"/>
      <stop offset="0.58" stop-color="#EEF6FF"/>
      <stop offset="1" stop-color="#F7F1E8"/>
    </linearGradient>
    <filter id="blur" x="0" y="0" width="1600" height="720" filterUnits="userSpaceOnUse" color-interpolation-filters="sRGB">
      <feGaussianBlur stdDeviation="40"/>
    </filter>
  </defs>
  <rect width="1600" height="720" rx="40" fill="url(#bg)"/>
  <g opacity="0.58" filter="url(#blur)">
    <ellipse cx="300" cy="120" rx="180" ry="90" fill="#B0EEFF"/>
    <ellipse cx="1310" cy="100" rx="170" ry="90" fill="#F6C1EE"/>
    <ellipse cx="1170" cy="640" rx="230" ry="90" fill="#FFDAB0"/>
  </g>
  <path d="M130 0V720" stroke="#D5ECFF" stroke-opacity="0.8"/>
  <path d="M540 0V720" stroke="#D5ECFF" stroke-opacity="0.8"/>
  <path d="M960 0V720" stroke="#D5ECFF" stroke-opacity="0.8"/>
  <path d="M1370 0V720" stroke="#D5ECFF" stroke-opacity="0.8"/>
  <text x="110" y="120" fill="#0ABA8B" font-family="'Space Grotesk', 'Noto Sans SC', sans-serif" font-size="40" letter-spacing="4">1ux4ry@archive:~# ./JAVA_SECURITY</text>
  <text x="110" y="330" fill="#77DDFF" font-family="'Space Grotesk', 'Noto Sans SC', sans-serif" font-size="150" font-weight="700">JAVA</text>
  <text x="110" y="450" fill="#EA75DF" font-family="'Space Grotesk', 'Noto Sans SC', sans-serif" font-size="150" font-weight="700">SECURITY</text>
  <text x="110" y="560" fill="#627590" font-family="'Noto Sans SC', sans-serif" font-size="42">安全研究 / Java 安全 持续学习 / 1ux4ry Archive</text>
  <rect x="970" y="120" width="520" height="420" rx="34" fill="#212635"/>
  <rect x="970" y="120" width="520" height="70" rx="34" fill="#2A3041"/>
  <circle cx="1022" cy="155" r="14" fill="#FF4966"/>
  <circle cx="1064" cy="155" r="14" fill="#FFA41B"/>
  <circle cx="1106" cy="155" r="14" fill="#1EC78F"/>
  <text x="1325" y="164" fill="#7789A7" font-family="'Space Grotesk', 'Noto Sans SC', sans-serif" font-size="26" font-weight="700">terminal</text>
  <text x="1030" y="255" fill="#24B6FF" font-family="'Space Grotesk', 'Noto Sans SC', sans-serif" font-size="34">1ux4ry@archive:~$</text>
  <text x="1282" y="255" fill="#D5F6E8" font-family="'Space Grotesk', 'Noto Sans SC', sans-serif" font-size="34">whoami</text>
  <text x="1030" y="330" fill="#D5F6E8" font-family="'Space Grotesk', 'Noto Sans SC', sans-serif" font-size="32">1ux4ry</text>
  <line x1="1030" y1="388" x2="1430" y2="388" stroke="#2C5C74"/>
  <text x="1030" y="465" fill="#24B6FF" font-family="'Space Grotesk', 'Noto Sans SC', sans-serif" font-size="34">1ux4ry@archive:~$</text>
  <text x="1282" y="465" fill="#D5F6E8" font-family="'Space Grotesk', 'Noto Sans SC', sans-serif" font-size="34">cat flag.txt</text>
  <text x="1030" y="532" fill="#FFB01F" font-family="'Space Grotesk', 'Noto Sans SC', sans-serif" font-size="32">flag{W3lc0m3_T0_My_B10g}</text>
</svg>
