<svg width="1600" height="720" viewBox="0 0 1600 720" fill="none" xmlns="http://www.w3.org/2000/svg">
  <defs>
    <linearGradient id="bg" x1="0" y1="0" x2="1600" y2="720" gradientUnits="userSpaceOnUse">
      <stop stop-color="#F7FBFF"/>
      <stop offset="0.58" stop-color="#EEF6FF"/>
      <stop offset="1" stop-color="#F7F1E8"/>
    </linearGradient>
    <filter id="blur" x="0" y="0" width="1600" height="720" filterUnits="userSpaceOnUse" color-interpolation-filters="sRGB">
      <feGaussianBlur stdDeviation="40"/>
    </filter>
  </defs>
  <rect width="1600" height="720" rx="40" fill="url(#bg)"/>
  <g opacity="0.58" filter="url(#blur)">
    <ellipse cx="300" cy="120" rx="180" ry="90" fill="#B0EEFF"/>
    <ellipse cx="1310" cy="100" rx="170" ry="90" fill="#F6C1EE"/>
    <ellipse cx="1170" cy="640" rx="230" ry="90" fill="#FFDAB0"/>
  </g>
  <path d="M130 0V720" stroke="#D5ECFF" stroke-opacity="0.8"/>
  <path d="M540 0V720" stroke="#D5ECFF" stroke-opacity="0.8"/>
  <path d="M960 0V720" stroke="#D5ECFF" stroke-opacity="0.8"/>
  <path d="M1370 0V720" stroke="#D5ECFF" stroke-opacity="0.8"/>
  <text x="110" y="120" fill="#0ABA8B" font-family="'Space Grotesk', 'Noto Sans SC', sans-serif" font-size="40" letter-spacing="4">1ux4ry@archive:~# ./JAVA_SECURITY</text>
  <text x="110" y="330" fill="#77DDFF" font-family="'Space Grotesk', 'Noto Sans SC', sans-serif" font-size="150" font-weight="700">JAVA</text>
  <text x="110" y="450" fill="#EA75DF" font-family="'Space Grotesk', 'Noto Sans SC', sans-serif" font-size="150" font-weight="700">SECURITY</text>
  <text x="110" y="560" fill="#627590" font-family="'Noto Sans SC', sans-serif" font-size="42">安全研究 / Java 安全 持续学习 / 1ux4ry Archive</text>
  <g opacity="0.92">
    <rect x="980" y="172" width="420" height="270" rx="44" fill="#FFFFFF" fill-opacity="0.74" stroke="#D8E6F8"/>
    <rect x="1018" y="210" width="166" height="166" rx="36" fill="#111217"/>
    <circle cx="1101" cy="293" r="70" fill="#FFF9F2"/>
    <path d="M1068 247H1091V338H1068V247Z" fill="#111217"/>
    <path d="M1097 247H1120V338H1097V247Z" fill="#111217"/>
    <path d="M1130 247C1168 267 1183 294 1183 338H1130V247Z" fill="#111217"/>
    <path d="M1130 247L1160 276L1147 289L1116 260L1130 247Z" fill="#F08A44"/>
    <text x="1230" y="266" fill="#0F172A" font-family="'Space Grotesk', 'Noto Sans SC', sans-serif" font-size="44" font-weight="700">Java</text>
    <text x="1230" y="320" fill="#0F172A" font-family="'Space Grotesk', 'Noto Sans SC', sans-serif" font-size="44" font-weight="700">Security</text>
    <text x="1230" y="370" fill="#5E6C84" font-family="'Noto Sans SC', sans-serif" font-size="24">安全研究专栏</text>
  </g>
</svg>
